<?xml version="1.0" encoding="UTF-8"?><svg id="uuid-fbb06306-6a8a-4f87-8a43-a744d76bcc92" xmlns="http://www.w3.org/2000/svg" viewBox="0 0 339.82 74.36">
<title>Jockey logo - Brandlogos.net</title><path d="M151.61,18.94h0c12.97,0,23.47,9.85,23.47,21.99s-10.5,21.99-23.47,21.99-23.37-9.85-23.37-21.99,10.51-21.99,23.37-21.99h0ZM151.61,57.13h0c8.74,0,15.75-7.22,15.75-16.15s-7.01-16.26-15.75-16.26-15.64,7.21-15.64,16.26,7.01,16.15,15.64,16.15h0Z" style="fill:#1d1d1b; fill-rule:evenodd;"/><path d="M222.58,47.5c0-.81-.66-1.47-1.47-1.47h-4.78c-.62,0-1.15.39-1.37.93h0c-2.1,5.86-7.14,10.02-14.99,10.02h0c-8.44,0-15.21-7.19-15.21-16.1s6.77-16.21,15.21-16.21c6.89,0,11.89,3.55,14.31,8.62h0c.24.47.74.8,1.3.8h4.78c.81,0,1.47-.66,1.47-1.47,0-.42-.2-.83-.2-.83-5.79-12.98-21.59-12.89-21.59-12.89-12.7,0-22.99,9.84-22.99,21.98s10.29,21.98,22.99,21.98c0,0,15.82,1.06,22.34-14.43,0,0,.2-.46.2-.94Z" style="fill:#1d1d1b; fill-rule:evenodd;"/><path d="M112.61,55.78c3.43-1.71,5.91-5.63,5.91-10.29v-1.4s0-22.01,0-22.01c0-.81.66-1.47,1.47-1.47h4.78c.81,0,1.47.66,1.47,1.47l-.02,22.87c0,10.3-7.8,17.82-17.52,17.82h-2.88c-3.63,0-7.62-1.31-7.62-1.31-6.24-1.99-10.75-7.69-10.75-14.41v-.22c0-.81.66-1.47,1.47-1.47h3.86c1.45,0,1.4,1.32,1.4,1.32v.31c0,5.55,5.49,10.05,12.25,10.05,0,0,3.35.16,6.19-1.26Z" style="fill:#1d1d1b; fill-rule:evenodd;"/><path d="M265.61,58.67l-16.45-24,11.74-12s.32-.32.32-.93c0,0,.01-1.13-.99-1.13h-5.86c-.41,0-.78.17-1.05.44l-19.1,19.14v-18.11c0-.81-.66-1.47-1.47-1.47h-2.37s-3.88-.21-3.88,4.97v33.75c0,.81.66,1.47,1.47,1.47h2.37s3.88.21,3.88-4.97v-5.9l9.71-9.93,13.77,20.04c.3.42.83.69,1.24.69h5.99c1,0,.99-1.13.99-1.13,0-.47-.32-.93-.32-.93Z" style="fill:#1d1d1b; fill-rule:evenodd;"/><path d="M293.36,42.79c1.7,0,3.08-1.38,3.08-3.08s-1.38-3.08-3.08-3.08h-17.09v-9.86h19.44c1.7,0,3.08-1.38,3.08-3.08s-1.38-3.08-3.08-3.08h-24.49c-1.51,0-2.73,1.22-2.73,2.72v34.68c0,1.5,1.22,2.73,2.73,2.73h24.49c1.7,0,3.08-1.38,3.08-3.08s-1.38-3.08-3.08-3.08h-19.44v-11.79h17.09Z" style="fill:#1d1d1b; fill-rule:evenodd;"/><path d="M315.82,57.66c0,1.73,1.22,3.13,2.73,3.13h2.37c1.5,0,2.72-1.4,2.72-3.13v-11.36s15.69-22.7,15.69-22.7c.52-.95.49-1.46.49-1.46,0-.81-.66-1.47-1.47-1.47h-5.24s-1.37-.09-2.41,1.55l-11.36,16.5-9.93-16.5c-1.04-1.64-2.41-1.55-2.41-1.55h-4.7c-.81,0-1.47.66-1.47,1.47,0,0-.03.51.49,1.46l14.52,23.08v10.98Z" style="fill:#1d1d1b; fill-rule:evenodd;"/><path d="M329.01,60.98v-3.44h-1.23v-.7h3.29v.7h-1.22v3.44h-.83Z" style="fill:#1d1d1b;"/><path d="M331.6,60.98v-4.13h1.25l.75,2.82.74-2.82h1.25v4.13h-.78v-3.25l-.82,3.25h-.8l-.82-3.25v3.25h-.78Z" style="fill:#1d1d1b;"/><path d="M73.98,56.71s-1.38-.91-2.05-1.25c0,0-11.08-5.68-17.86,5.95-2.7,5.12-.86,9.14-.86,9.14-3.85.25-8.26-.66-12.49-2.82-5.05-2.59-8.78-6.42-10.55-10.38,0,0-2.04-4.13-1.63-9.14,2.42,3.51,6.47,5.82,11.05,5.82,12.6,0,21.12-9.76,21.12-9.76,3.4-4.05,5.58-10.29,5.58-17.28,0-6.47-1.88-12.28-4.85-16.32l-.02-.03c-2.15-3-5.35-5.75-9.32-7.75C48.11.88,43.97-.06,40.25,0h-.78s-2.02,0-2.33,2.53c0,0-.23,1.69-.18,2.43,0,0-.01,12.6,13.71,13.2,5.91,0,8.71-3.54,8.71-3.54,2.02,3.33,3.24,7.71,3.24,12.52,0,5.75-1.76,10.89-4.53,14.34,0,0-2.43,3.27-6.6,5.33.96-1.85,1.52-3.95,1.52-6.18,0-3.53-1.37-6.73-3.61-9.13-6.3-9.87-18.01-12.14-18.01-12.14-5.13-.89-11.54.35-17.55,3.83-5.56,3.21-9.63,7.7-11.66,12.25v.03C.64,38.79-.17,42.88.03,47.25c.21,4.41,1.41,8.4,3.27,11.54l.38.67s.85,1.68,3.3.73c0,0,1.52-.63,2.17-1.05,0,0,10.83-6.25,4.68-18.24-2.87-5.04-7.27-5.67-7.27-5.67,1.88-3.37,5.05-6.6,9.18-8.98,4.94-2.85,10.21-3.91,14.51-3.26,0,0,5.06.56,9.19,4.03l.39.2c-.08,0-.16-.01-.25-.01-6.6,0-12.07,4.77-13.2,11.04-3.88,10.12.1,20.13.1,20.13,2.01,4.77,6.51,9.47,12.66,12.61,5.69,2.91,11.66,3.89,16.57,3.13h.03c3.62-.53,7.5-2.06,11.07-4.6,3.59-2.56,6.31-5.72,7.95-8.97l.36-.68s1.03-1.68-1.16-3.15ZM39.59,30.88c5.38,0,9.74,4.36,9.74,9.74s-4.36,9.74-9.74,9.74-9.74-4.36-9.74-9.74,4.36-9.74,9.74-9.74ZM50.58,14.44c-10.42,0-9.89-10.66-9.89-10.66,3.72-.16,7.89.92,11.73,3.31,2.03,1.26,3.77,2.77,5.18,4.41,0,0-2.05,2.94-7.01,2.94ZM57.34,62.88c4.95-8.99,13.9-3.47,13.9-3.47-1.64,3.29-4.55,6.37-8.43,8.55-2.05,1.15-4.18,1.93-6.27,2.37,0,0-1.56-3.17.8-7.45ZM10.7,42.79c5.02,8.95-4.38,13.64-4.38,13.64-1.93-3.12-3.01-7.23-2.81-11.67.11-2.35.56-4.57,1.29-6.58,0,0,3.51.35,5.91,4.61Z" style="fill:#1d1d1b;"/></svg>