<?xml version="1.0" encoding="UTF-8"?><svg id="uuid-87d314fc-ac84-4777-8885-dfa4a2440d66" xmlns="http://www.w3.org/2000/svg" viewBox="0 0 240.83 473.1">
<title>Polo Ralph Lauren logo - Brandlogos.net</title><polygon points="212.16 471.81 213.3 471.81 213.3 455.82 212.16 455.82 212.16 454.99 216.51 454.99 216.64 454.99 223.83 467.08 223.83 455.82 222.52 455.82 222.52 454.99 226.06 454.99 226.06 455.82 224.92 455.82 224.92 472.64 223.83 472.64 214.39 456.76 214.39 471.81 215.7 471.81 215.7 472.64 212.16 472.64 212.16 471.81 212.16 471.81" style="fill-rule:evenodd;"/><path d="M14.77,471.81h1.29v-15.98h-1.29v-.83h7.43c.54,0,1.12.11,1.69.31.57.2,1.13.49,1.63.85.53.45.96.97,1.26,1.54.29.57.44,1.24.44,1.9s-.15,1.33-.44,1.9c-.29.58-.73,1.1-1.26,1.54-.5.36-1.06.65-1.63.85-.46.16-.94.27-1.39.3h0s5.27,7.62,5.27,7.62h1.34v.83h-4.2l-5.85-8.44h-.14v7.61h1.29v.83h-5.46v-.83h0ZM18.94,455.82v7.54h1.47c.55-.02,1.04-.06,1.46-.16.42-.09.77-.23,1.06-.42.29-.19.52-.44.69-.76.29-.55.44-1.49.44-2.43s-.15-1.88-.44-2.43c-.17-.32-.4-.57-.69-.76-.29-.19-.64-.33-1.06-.42-.42-.09-.9-.14-1.46-.16h-1.47Z" style="fill-rule:evenodd;"/><path d="M174.99,471.81h1.29v-15.98h-1.29v-.83h7.43c.54,0,1.12.11,1.69.31.57.2,1.13.49,1.63.85.53.45.97.97,1.26,1.54.29.57.44,1.24.44,1.9s-.14,1.33-.44,1.9c-.29.58-.73,1.1-1.26,1.54-.5.36-1.06.65-1.63.85-.46.16-.94.27-1.39.3h0s5.27,7.62,5.27,7.62h1.34v.83h-4.2l-5.85-8.44h-.14v7.61h1.29v.83h-5.46v-.83h0ZM179.17,455.82v7.54h1.47c.56-.02,1.04-.06,1.46-.16.42-.09.77-.23,1.06-.42.29-.19.52-.44.69-.76.29-.55.44-1.49.44-2.43s-.14-1.88-.44-2.43c-.17-.32-.4-.57-.69-.76-.29-.19-.64-.33-1.06-.42-.42-.09-.9-.14-1.46-.16h-1.47Z" style="fill-rule:evenodd;"/><path d="M71.36,471.81h1.29v-15.98h-1.29v-.83h7.43c.54,0,1.12.11,1.69.31.57.2,1.13.49,1.63.85.53.45.96.97,1.26,1.54.29.57.44,1.24.44,1.9s-.15,1.33-.44,1.9c-.29.58-.73,1.1-1.26,1.54-.5.36-1.06.65-1.63.85-.57.2-1.15.31-1.69.31h-3.26v7.61h1.29v.83h-5.46v-.83h0ZM75.53,455.82v7.54h1.47c.55-.02,1.04-.06,1.46-.16.42-.09.77-.23,1.06-.42.29-.19.52-.44.69-.76.29-.55.44-1.49.44-2.43s-.15-1.88-.44-2.43c-.17-.32-.4-.57-.69-.76-.29-.19-.64-.33-1.06-.42-.42-.09-.9-.14-1.46-.16h-1.47Z" style="fill-rule:evenodd;"/><path d="M122.69,454.99h5.46v.83h-1.29v15.98h3.02c.81,0,1.43-.28,1.91-.74.47-.45.8-1.07,1.02-1.75.22-.67.35-1.4.42-2.07.07-.67.09-1.27.11-1.7h1.2v7.09h-11.85v-.83h1.29v-15.98h-1.29v-.83h0Z" style="fill-rule:evenodd;"/><path d="M54.47,454.99h5.46v.83h-1.29v15.98h3.02c.82,0,1.43-.28,1.91-.74.47-.45.8-1.07,1.02-1.75.22-.67.35-1.4.42-2.07.07-.67.09-1.27.11-1.7h1.2v7.09h-11.85v-.83h1.29v-15.98h-1.29v-.83h0Z" style="fill-rule:evenodd;"/><path d="M169.1,468.14v-12.32h1.07v-.83h-3.22v.83h1.07v12.1c0,1.18-.41,2.1-1.03,2.74-.62.65-1.45,1.02-2.28,1.11-.83.08-1.65-.13-2.27-.65-.62-.52-1.04-1.35-1.04-2.51v-12.79h1.44v-.83h-5.62v.83h1.29v12.32c0,.68.14,1.33.39,1.92.25.59.61,1.12,1.06,1.57.45.45.98.81,1.57,1.06.65.28,1.46.41,2.28.41s1.63-.14,2.28-.41c.59-.25,1.12-.61,1.57-1.06s.81-.98,1.06-1.57c.25-.59.39-1.24.39-1.92h0Z" style="fill-rule:evenodd;"/><path d="M206.98,454.99v5.88h-.99c-.04-.51-.11-1.08-.22-1.65-.12-.57-.29-1.14-.54-1.64-.25-.5-.57-.94-1-1.26-.43-.31-.96-.5-1.63-.5h-3.81v7.32h1.13c.66,0,1.16-.12,1.53-.33.37-.21.61-.49.78-.82.17-.33.26-.7.31-1.07.06-.37.08-.74.12-1.08h.84v7.6h-.84c-.04-.33-.07-.71-.12-1.08s-.15-.74-.31-1.07c-.17-.33-.41-.62-.78-.82-.37-.21-.86-.33-1.53-.33h-1.13v7.65h3.81c.74,0,1.31-.23,1.77-.61.45-.38.78-.9,1.02-1.49.24-.59.39-1.24.48-1.86.1-.63.14-1.23.16-1.73h1.22v6.52h-12.8v-.83h1.44v-15.98h-1.44v-.83h12.52Z" style="fill-rule:evenodd;"/><polygon points="91.93 455.82 91.93 462.83 98.47 462.83 98.47 455.82 97.19 455.82 97.19 454.99 102.8 454.99 102.8 455.82 101.36 455.82 101.36 471.81 102.8 471.81 102.8 472.64 97.19 472.64 97.19 471.81 98.47 471.81 98.47 463.66 91.93 463.66 91.93 471.81 93.22 471.81 93.22 472.64 87.6 472.64 87.6 471.81 89.05 471.81 89.05 455.82 87.6 455.82 87.6 454.99 93.22 454.99 93.22 455.82 91.93 455.82 91.93 455.82" style="fill-rule:evenodd;"/><path d="M146.46,454.99l-5.47,16.82h-1.37v.83h3.87v-.83h-1.52l1.95-5.99h5.12l1.95,5.99h-1.56v.83h5.46v-.83h-1.01l-5.47-16.82h-1.94ZM144.19,464.99l2.29-7.03,2.29,7.03h-4.57Z" style="fill-rule:evenodd;"/><path d="M40.96,454.99l-5.47,16.82h-1.37v.83h3.87v-.83h-1.52l1.95-5.99h5.11l1.95,5.99h-1.56v.83h5.46v-.83h-1.01l-5.47-16.82h-1.94ZM38.7,464.99l2.29-7.03,2.29,7.03h-4.57Z" style="fill-rule:evenodd;"/><path d="M98.74,63.45c-.83,0-1.31-.31-1.62-1.14-.34-.9-.15-1.35.56-1.94,1.78-1.46,3.76-2.67,5.67-3.97,5.56-3.8,11.23-7.45,16.87-11.14,5.76-3.77,11.43-7.68,17.03-11.68,4.99-3.57,10.01-7.17,14.89-10.93,2.38-1.83,4.73-3.71,7.03-5.63,1.33-1.12,2.55-2.33,3.36-3.66.46-.76.52-1.51-.15-3.04-.89-2.04-2.12-4.81-2.73-6.29-.16-.39-.24-.8-.28-1.21-.1-.91.47-1.78,1.21-2.3,1.43-.99,2.44-.43,3.19.82,3.22,5.32,7.5,16.04,9.73,22.07.79,2.13-2.42,3.72-3.75,2.21-1.26-1.42-2.33-4.73-3.39-6.69-.86-1.58-2.13-.9-3.32-.07-3.15,2.2-6.23,4.49-9.29,6.81-4.78,3.62-9.51,7.3-14.37,10.8-5.56,4.01-11.2,7.91-16.92,11.75-5.47,3.68-10.98,7.32-16.46,10.97-1.85,1.23-5,4.32-7.26,4.29h0ZM124.15,301.86c-.2-.02-.38-.12-.54-.22-1.02-.61-1.78-1.36-2.51-2.34-.59-.79-1.2-1.61-1.96-2.26-.67-.58-1.49-.97-2.17-1.53-.16-.13-.26-.33-.3-.52-.07-.32-.09-.65-.05-.97.11-.83-.11-1.29-.77-1.72-1-.65-2.16-.9-2.76-1.98-.18-.32-.2-.31-.25-.6-.13-.67-.26-1.2.28-1.67.47-.41,1.09-.28.9-.89-.26-.85-.95-1.46-1.39-2.21-1.08-1.82-2.25-3.42-2.7-5.5-.28-1.29-.37-2.64-.21-3.95.11-.83.73-1.57,1.19-2.29,1.41-2.23,1.31-2.29,1.6-2.98.46-1.11.99-2.18,1.23-3.35.12-.59.19-1.22.3-1.81.08-.4-.09-.83-.02-1.23.11-.59.25-1.12.26-1.72.04-2.69-.35-5.36-.38-8.04,0-.67.37-1.24.43-1.91.1-1.13-.08-2.61.2-3.74.1-.41.05-.86-.07-1.25-.41-1.36-.91-2.56-.73-3.96.18-1.43,1.21-2.62,1.5-4.02.05-.23,0-.48.05-.7.13-.52.32-1.83.19-2.84-.16-1.18-.73-1.71-1.47-.82-.24.29-.37.67-.48,1.04-.17.61-.48,1.11-.52,1.74-.13,1.8.24,3.61.24,5.42,0,.23-.03.23-.14.75-.06.29-.28.55-.31.85-.07.75.18,1.65-.23,2.3-.61.95-1.55.84-2.46.14-.63-.48-1.28-.93-2.04-1.13-1.75-.47-3.15-1.31-4.68-2.29-1.58-1.01-3.34-1.75-5.05-2.54-.31-.14-.61-.3-.86-.52-1.05-.96-1.8-2.49-2.63-3.66-.71-1-1.01-1.22-1.19-1.48-.44-.66-.68-1.12-1.37-2.61-.7-1.49-1.58-2.31-2.63-3.58-1.3-1.57-1.3-3.84-1.98-5.74-.07-.18-.25-.32-.29-.5-.13-.64-.09-1.27-.36-1.87-.34-.75-.3-.77-.5-1.03-.39-.52-1.5-1.31-1.68-1.55-.24-.32-.49-.63-.64-1-.38-.92-.48-1.45-.53-1.68-.11-.49-.03-1.01-.17-1.48-.42-1.44-.21-3.03-.55-4.53-.16-.7-.07-1.44.02-2.16.11-.91.05-.92.03-1.1-.08-.77-.23-1.5-.42-2.24-.11-.44-.53-.79-.59-1.24-1.18-8.07-6.8-15-7.91-22.86-.17-1.17.07-1.98.41-3.06.16-.5.31-.99.36-1.51.13-1.49-.03-1.51.1-2.2.16-.84.58-1.6,1.44-1.04.37.24.68.59.93.96,1.21,1.86,1.07,1.95,1.54,2.64.28.41.79,1,1.3,1.42.3.25.65.53.96.4.52-.22.33-.95-.06-1.66-.64-1.17-1.95-2.49-2.17-2.79-.12-.16-.17-.37-.29-.52-.48-.54-.72-1.08-1-1.73-2.22-5.28-2.35-11.14-3.08-16.8-.57-4.45-1.17-8.87-1.92-12.97-.22-1.19-.59-2.42-1.41-3.31-.57-.62-.96-.19-1.67.11-2.03.87-3.92,2.09-4.85,4.1-.21.44-.34.93-.36,1.42-.05.88.21,1.94.28,2.82.16,2.01.96,7.41,2.3,13.55,1.11,5.04,2.67,10.54,4.42,15.11.43,1.13.59,2.11.92,3.2.34,1.14.5,1.1.62,1.85.2,1.21.22,1.22.28,4.43.03,1.86-2.42,1.93-3.05.38-.35-.86-.2-1.31-.38-2.21-2.19-10.88-5.1-22.51-7.98-33.37-.18-.66-.04-1.49-.65-1.87-.4-.25-.73-.32-1.18-.21-.65.16-1.14.25-1.76.05-.44-.15-.83-.43-1.15-.72-.42-.37-.83-.85-.74-1.48.07-.48.43-.81.89-.98.95-.37,1.58-.93,2.32-1.6.25-.23.49-.43.75-.65.3-.25.63-.49.98-.67.45-.24.97-.35,1.42-.6.86-.5,1.47-1.23,1.61-2.21.14-.89-.02-2.07-.14-2.7-.12-.63-.13-.74-.23-1.08-.1-.34-.31-.27-.4-.9-.09-.63-.12-2.28-.02-2.9.1-.62.02-.64-.05-.95-.07-.31-.19-.05-.35-.86-.16-.81-1.1-2.62-1.49-3.31-.39-.68-.31-.31-.42-.5-.56-.98-1.26-1.91-1.98-2.78-.3-.36-.75-.63-1.11-.93-.47-.38-.93-.87-.51-1.56.25-.43.76-.46,1.17-.44,1.78.1,3.79,3.04,4.49,4.09.91,1.37,1.02,1.66,1.37,2.69.34,1.03.51,1.56.69,2.2.18.63.1,1.56.23,2.79.13,1.23.09-.27.15.39.06.66.08,2.42.22,3.28.14.86.52,1.37.8,1.72.28.35-.09.38.57.43.25.02.6-.15,1-.39.65-.41,1.43-1,1.88-1.43.24-.23.67-.64.3-.84-.25-.14-.51-.05-.74,0-.38.07-.77.21-1.43.25-1.05.07-1.12-1.08-1.1-1.98.03-.9.08-.52-.08-1.43-.08-.48-.13-1.35-.16-2.17-.1-2.17-.37-2.95-1.91-4.95-.7-.91-1.38-1.83-2.07-2.74-.55-.72-1.02-1.51-1.78-1.98-.76-.48-1.81-.69-2.38-1.26-1.04-1.05-.41-2.52.11-3.67.54-1.21.56-1.21,1.28-2.25.76-1.1,1.6-2.05,2.57-2.99.47-.46.92-.94,1.46-1.3q2.43-1.62,2.67-1.72c1.04-.42,2.19-.74,3.09-1.4,1.03-.75,2.14-1.69,2.33-2.96.07-.45-.28-.99-.77-.84-.66.2-1.03.92-1.64,1.23-.83.42-2.01.49-2.8-.05-.37-.25-.71-.54-.98-.88-.81-1.03-1.87-1.84-2.76-2.82-.52-.57-1.2-.98-1.7-1.57-.3-.36-.6-.75-.85-1.14-.28-.44-.29-1.12-.17-1.63.19-.81.68-.95,1.47-.88.48.04.9.41,1.38.45.79.07,1.52-.6,1.7-1.34.14-.58,0-.99.34-1.49.2-.28.37-.15.68-.75.37-.73-.73-1.54-.99-2.22-.17-.45-.2-.73-.23-1.04-.06-.56-.06-1.1.09-1.64.13-.49.36-.97.64-1.4.66-1.01,1.49-1.96,2.36-2.81.94-.91,1.83-1.69,2.99-2.3.58-.3,1.18-.56,1.8-.75.21-.07.45-.09.67-.04.75.19,1.31.88,2.07,1.03.73.14,1.09-.31,1.49-.93.7-1.07,1.45-.25,2.19.25.5.34.99.13,1.23-.39.09-.2-.06-.22.03-1.19.05-.55.11-.55.3-.89.63-1.1,1.92-1.62,2.96-2.27.43-.27.48-.18.82-.4.16-.1.74-.67,1.33-.94,1.51-.69.33-1.54-.46-.99-.21.15-.43.31-.68.39-.32.09-.78-.08-.96.19-.25.37-.09.46-.23.58-.56.45-1.14.89-1.82,1.14-.97.37-1.88.83-2.69,1.47-.78.61-1.46,1.39-2.3,1.91-.73.46-2.33.31-1.63-1.23.18-.4.41-.84.61-1.12.87-1.25.47-3.17.02-4.49-.49-1.44,0-3.08.88-4.19,2.17-2.71,5.31-4.95,8.76-5.73,1.26-.28,2.55-.24,3.8-.11,1.14.12,2.48.37,3.48.92.63.35,1.53.58,1.7,1.32.15.66.03.82-.5,1.31-.15.14-.52.62-.53.82-.02.99,1.13,1.34,1.96,1.18.47-.09,1.05-.37,1.57-.36.67.01,1.3.37.96,1.27-.17.45-.63.54-1.1.47-.47-.08-.59.43-1.01.54-.54.14-1.12.01-1.66.13-.62.14-.57.31-1.55.61-.78.24-1.84.46-2.62.97-1.58,1.03-.5,2.14.82,1.54.86-.39.84-.46,1.42-.6.97-.24,2.03-.62,2.97-.95.46-.16.68-.1,1.25-.33.67-.27,1.56-.8,2.19-.37,1.01.68.51,1.83-.23,2.55-.47.46-1.21.61-1.78.96-.25.15-.54.27-.71.51-.39.54-.52.63-.63,1.21-.12.66-.05,1.34.1,2,.07.31.38.47.52.75.54,1.1,1.32,1.93,2.33,2.59.72.48,1.29.49,2.13.62.71.11,1.17.09,1.91-.19.73-.28,1.66-.8,2.25-.78.59.03.49.15.81.31.31.16.66.52.92.87.47.61.55.9.6,1.65.03.46-.06.94.1,1.37.28.75.95,1.16,1.61.62.4-.33.63-.77.51-1.29-.24-1.02-.35-1.67.46-2.42.43-.4,1.17-.41,2.02-.23,1.24.26,2.65,1.06,3.71,1.38,2.51.75,4,1.98,6.06,3.41.61.43,1.11.98,1.73,1.39,1.52,1,3.14,1.77,4.73,2.64.51.28.97.63,1.43.99.35.28.7.57.97.92.22.29.45.62.49.98.21,1.69-.9,1.62-2.33,1.77-.53.06-1.07.11-1.56.3-.76.3-1.23.55-1.51.8-.41.37-.7.85-1.04,1.3-.78,1.05-1.46,1.83-1.7,1.98-.99.62-1.69.15-2.7-.3-1.27-.56-2.68-1.37-3.32-2.69-.23-.48-.36-.56-.57-.97-.39-.75-1.25-1.01-.97.18.14.62.73,1.34.85,1.73.09.29,0,.62.09.92.1.34.13.62.27.95.23.55-.06,1.38.47,1.67.35.2.41-.05.97.08.87.21,1.39.42,1.62,1.29.25.97.12,1.09-.71,1.69-.8.57-.85.54-1.33.64-1.62.34-2.61,1.63-4.14,2.06-.21.06-.35.27-.55.34-.32.1-.69.03-1,.14-.53.19-1.11.27-1.67.22-.61-.06-1.09-.33-1.6.03-.2.14-.22.46-.22.71,0,1.28.11,2.53.37,3.78.14.64.09,1.35.32,1.95.42,1.09,1.33,2.03,1.66,3.16.31,1.08.56,2.42,1.37,3.19.37.35.75.01,1.03-.36,1.14-1.5,2.67-2.77,4.56-3.22,1.41-.34,2.66-.62,4.1-.57.97.04,1.44,1.04,2.24,1.51.97.58,1.86.56,2.21-.63.23-.79.29-1.66.57-2.44.28-.77.73-1.28,1.52-1.54.47-.16,1-.15,1.5-.08.38.06.38.11.64.37.74.74.53,1.33-.02,2.14-.28.41-.71.71-.98,1.13-.27.41-.45.88-.6,1.35-.06.19-.04.4-.01.6.11.97,1.06,1.73,1.62,2.49.31.43.32.96.12,1.46-.52,1.37-.91,2.54-.53,4,.29,1.13,1.07,2.07,1.35,3.17.18.68.37,1.48-.22,1.92-.27.2-.62.25-.95.27-3.2.24-6.43.16-9.61.59-.64.09-1.2.23-1.82.36-.8.17-1.66.04-2.44.26-1.24.35-2.68.94-3.72,1.73-.92.7-1.65,1-2.73,1.37-.56.19-.87.42-1.41.64-.85.35-1.58.98-2.33,1.53-1.14.83-1.13.92-1.83,1.1-.75.2-1.75.06-2-.78-.25-.86-.25-1.79-.14-2.68.06-.49.35-.94.63-1.35.56-.81,1.28-1.48,2.25-1.76.29-.09.62-.01.92-.09.73-.19,2.1-.6,2.37-1.33.1-.27.07-.6-.05-.86-.33-.78-1.13-.65-1.87-.81-1.01-.21-2.03-.14-3-.37-.2-.05-.43.07-.62-.01-.56-.23-1.01-.52-1.41-.97-.86-.98-.96-1.18-1.17-1.47-.73-1-1.67-2-1.19-3.27.11-.28.34-.46.64-.52.56-.12,1.15,0,1.7-.13.48-.12.84-.32,1.12-.74.63-.92.96-1.84,2-2.32.24-.11.54-.1.8-.04.96.23,1.79.73,2.5.74.4,0,.55-.43.36-.78-.61-1.12-1.61-1.99-2.47-2.93-.22-.24-.37-.55-.45-.86-.09-.34-.11-.71-.06-1.06.11-.77.12-1.7.26-2.47.09-.48.22-.72.33-1.2.17-.75.1-1.64,0-2.4-.02-.16-.08-.36-.23-.42-.65-.26-1.12.39-1.67.78-.62.43-.64.42-.92.46-.65.1-1.32.16-1.98.1-.69-.05-1.72-.33-2.32.04-.11.07-.16.16-.04.28.43.45,1.03.43,1.63.55,1,.2,1.01.21,1.33.37.69.33,1.06.61,1.43,1.25.66,1.12.71,1.11.83,1.54.23.8.43,1.59.3,2.41-.14.85-.21.86-.63,1.44-.69.96-1.34,2.1-2.52,2.28-4.47.69-4.52.4-5.83.26-1.66-.17-1.75-1.13-2.22-2.61-.15-.49,0-1.04-.12-1.53-.22-.83-.4-1.64-.74-2.42-.25-.58-.83-1.09-1.55-2.19-.26-.39-.23-.91-.17-1.37.08-.65.4-1.65-.39-1.66-.87-.02-.91,1.38-.78,2.07.13.7.49,1.35.72,2.02.1.28.11.46.21.73.14.37.47.65.58,1.02.22.74.52,1.28.72,2.02.22.8.09,1.9.32,2.7.21.76.17,1.51.38,2.26.33,1.16.2,2.37.54,3.57.17.62.31,1.01.48,1.64.08.31-.03.66.09.96.34.8.24,1.88.45,2.78.17.7.25,1.85.54.43.12-.6.11-1.27.08-1.9-.08-1.75.79-1.17,1.28.02.09.23.01.5.08.74.25.88.56,1.82.71,2.72.15.88.4,1.66.66,2.51.16.51.19.5.27.91.17.93.21,2.13.55,3.04.13.35.21.66.27,1.04.18,1.05.13,2.11.43,3.13.37,1.27.27,2.83.61,4.09.15.58.25,1.25.45,1.81.26.71.7,1.22,1.69,1.04.85-.15,1-.62,1.39-1.41.58-1.16,1.06-2.39,1.57-3.59.38-.91.39-.91.54-1.47.32-1.26,1.65-2.36,2.86-2.67.73-.19,1.04-1.24,1.33-1.89.18-.4.47-.76.79-1.06.62-.58,1.23-1.09,2.04-1.34.6-.19,1.26-.15,1.89-.1.46.04.59.07,1.04-.05.72-.19,1.04-.1,1.6-.35,1.86-.83,3.63-.55,5.61-.87.34-.05.61-.33.94-.4.64-.14.64-.13,1.09-.19,1.35-.17,1.35-.3,4.82-.3.76,0,1.27.43,1.73,1.07.24.33.44.71.54,1.11.12.47.13.97.08,1.46-.05.47-.16.95-.37,1.38-.3.64-1.18.93-1.36,1.61-.23.84,1.11.92,1.75,1.1.95.26,1.31.33,1.7.52.29.14.57.3.81.52.15.14.26.33.31.53.07.26.13.55.04.8-.45,1.29-2.02,1.23-3.22,1.54-1.27.33-2.54.68-3.8,1.08-.46.14-.98.01-1.44.16-1.08.35-2.39,1.75-1.59,2.82,1.15,1.54,2.46-1.46,3.33-1.99,1.43-.87,3.89-1.96,5.27-.3.13.16.26.34.29.55.11.8.11,1.62,0,2.42-.08.61-.2,1.11-.3,1.73-.06.35.04.7.01,1.05-.03.32-.72,3.51.47,2.61.66-.5.51-.95.63-1.76.09-.62.18-1.22.25-1.85.06-.51-.13-1.03-.04-1.53.09-.49.36-1.47.85-1.64.36-.13.81-.25,1.15-.06.96.53,1.18,1.12,1.49,2.22.2.7.17,1.47.12,2.2-.04.55-.26,1.01-.36,1.55-.07.37-.48.82-.26,1.14.09.12.29-.09.41-.17.72-.43,1.19-.65,1.84-.01.11.1.23.21.26.36.1.55.15,1.12.09,1.67-.06.59-.09.59-.21,1.06-.11.43-.37.64-1.24,3.09-.25.69-.89,2.04-.19,2.56.55.41.83-.05,1-.64.14-.53.3-.9.45-1.43.22-.74-.05-1.33.81-1.51.97-.2,1.57.73,1.78,1.59.21.93.22,1.9.15,2.85-.05.66-.31,1.33-.42,2-.1.58.47,1.92-.51,2.88-.46.45-.64,1.03-.79,1.55-.44,1.56-.03,3.12-.47,4.53-.42,1.33-1.33,2.49-1.86,3.78-.5,1.22-.72,2.51-.89,3.82-.04.26-.22.5-.27.76-.62,3.18-1.03,4.06-2.75,6.75-.47.73-.86,1.54-1.07,2.39-.05.19-.09.44.03.6.62.82,1.6-.06,2.36.54.71.56.48,1.18.09,1.9-.3.55-1.31.9-1.28,1.52.03.49.68.12,1.07-.02.16-.05.36-.12.5-.02.52.37.3,1.12.27,1.72-.04.72,0,1.46.12,2.17.12.72.63,2.34,1.57,1.54.08-.07.09-.21.08-.31-.1-.93-.8-2.4-.01-3.08.16-.14.43-.1.62-.03,1.01.32,1.66,1.17,2.01,2.15.15.43.21.81.29,1.26.17,1.01.31,2.05.16,3.07-.17,1.16-.72,1.87-1.66,2.68-.22.19-.46.36-.73.48-.26.12-.54.18-.82.22-.81.11-1.19.14-1.9.54-.2.11-.46.12-.67.04-.67-.26-1.29-.53-1.73-1.1-.4-.51-.53-1.19-.89-1.72-.19-.28-.46-.49-.74-.66-.87-.55-1.25-1.18-1.51-2.19-.13-.5-.42-.86-.73-1.29-.62-.85-1.3-1.76-1.76-2.7-.08-.16-.05-.36-.12-.52-.47-1.17-1.1-2.36-1.02-3.7.04-.57-.5-.7-.86-1.16-.71-.92-1.73-1.65-2.16-2.74-.27-.68-.46-1.48-.55-2.21-.31-2.37-.24-4.78-.42-7.17-.01-.17-.14-.31-.16-.47-.16-1.45-.63-2.88-1.52-4.08-.32-.44-.63-.82-.73-1.33-.25-1.24-.41-2.26-1.25-3.24-.22-.26-.44-.46-.63-.74-1.21-1.76-2.98-3.13-4.41-4.72-.93-1.03-1.59-2.73-2-3.96-.08-.23-.1-.48-.04-.71.17-.63.67-1.02.97-1.58.21-.41.03-.98-.45-.78-.7.28-1.41.55-1.84,1.17-.41.59-.54.61-.48,1.06.08.68.63.91.96,1.5.4.71,1.82,2.13.7,2.71-1.47.76-2.81-.18-3.95-1.16-.52-.44-.93-1.01-1.27-1.6-.25-.45-.31-.43-.54-1.11-.17-.5-.25-1.02-.21-1.54.04-.54.19-1.14,0-1.65-.36-.95-1.17-1.66-1.45-2.64-.26-.91-.48-1.99-.72-2.9-.17-.63-.07-1.09-.4-1.65-.13-.23-.62-.65-1.11-1-.63-.45-1.47-.75-1.65.01-.11.47.17.95.36,1.4.31.76.64,1.53.85,2.33.12.5.47.92.6,1.41.16.59.18,1.21.4,1.78.32.83.51,1.47.69,2.33.04.19.46,1.49.73,1.98.21.39.21.64.4,1.03.34.72.84,1.35,1.33,1.98.28.35.61.67.96.95.62.5,1.33.86,2.11,1.03,1.05.22,1.52.24,2.26.99.42.43.78.79,1.16,1.25.5.6,1.05,1.19,1.56,1.78.62.72,1.42,1.06,2,1.8.35.45.65.89.73,1.45.16,1.04.31,2.11.17,3.16-.2,1.44-.7,2.95-.12,4.33.57,1.36,1.34,2.63,1.92,3.97.3.69.74,1.32.9,2.06.23,1.05.1,2.16.21,3.23.01.12.14.22.15.34.12,1.09,0,2.21.26,3.27.23.92-.06,1.81-.08,2.7,0,.65.41,1.26.75,1.81.9,1.45,1.87,2.9,2.87,4.29.33.46.66.97,1,1.44.19.26.66.81,1.02,1.34.67.98,1.37,1.72,2.22,2.54.14.14.22.35.36.49,1.23,1.2,2.2,2.39,3.13,3.82.26.39.68,1.61.71,1.8.12.92.22,1.85.15,2.77-.04.42-.26.8-.47,1.17-.31.56-1.52,1.43-1.09,1.95.48.57,1.34.16,1.8-.39.54-.64.7-1.49.79-2.32.1-.94-.2-1.9-.11-2.84.13-1.26,1.62-1.76,2.52-.96.35.32.32.75.48,1.19.12.35.42.62.53.98.11.36.02.76.1,1.13.09.4.23.79.41,1.16.24.51.16.94.34,1.47.37,1.1.68,2.45.45,3.58-.12.61-.33,1.17-.71,1.67-.66.88-1.32,1.77-2,2.63-.21.27-.41.6-.44.95-.09,1.03.05,2.11-.32,3.08-.31.82-.86,1.47-.89,2.34-.03.83.46,1.59.66,2.39.03.12.13.22.15.34.15,1.18.51,2.43.23,3.64-.15.67-.32,1.23-.64,1.82-.97,1.8-1.15,2.07-1.74,3-1.11,1.76-2.38,3.64-3.26,5.52-.14.29-.21.46-.35.75-.97,2.12-1.94,4.18-3.46,5.97-.29.34-.5.69-.76,1.07-.27.41-.59.81-.7,1.29-.17.76-.16,1.49-.41,2.21-.49,1.41-1.62,2.66-2.02,4.1-.08.3.04.62-.04.92-.22.87-.37,1.45-.45,2.35-.03.37-.26.7-.29,1.07-.06.69-.16,1.18-.3,1.86-.11.52-.12.52-.14.75-.04.71-.08,1.44.11,2.13.24.87.82,1.59,1.22,2.39.16.32.35.35.23,3.51-.04,1.17-1.44,2.12-1.89,3.21-.34.83-.39,1.2.5,1.48.31.1.64-.05.96,0,.45.06.8.29,1.06.66.91,1.33-1.24,2.45-2.11,3.23-.24.21-.59.6-.52.94.03.15.14.29.26.4.04.04.12.03.17,0,.3-.22.57-.45.83-.65.62-.48,1.19-.79,2.08-.37.83.39,1.37,1.22,2.03,1.87.79.77,1.85,1.46,2.5,2.38.17.24.29.52.35.81.08.39.14.8.06,1.19-.11.55-.45,1.03-.62,1.57-.31.98-.5,2.32-1.49,2.76-.37.17-.82.12-1.23.09h0ZM163.58,242.41c-.25,0-.54-.06-.81-.1-.45-.07-1.01-.24-.88-.73.16-.61.65-.85,1.06-.98.41-.14.89-.07,1.49,0,.28.03.57.06.83-.04.59-.23,2.14-1.95,2.15-.4,0,.28-.09.56-.22.8-.2.38-.44.68-.81.9-.47.28-.5.27-1.42.47-.46.1-.93.1-1.4.1h0ZM78.74,130.4c.23-.24.53-.44.64-.59.19-.26,1.04-1.24,1.35-1.73.93-1.46,1.77-2.96,2.67-4.45.23-.38.61-.91.95-1.28.44-.48,1.04-.69,1.41.38.15.43-.38.97-.64,1.33-1.17,1.6-1.65,2.13-3.18,4.18-.66.89-1.33,2.21-2.33,2.73-.56.29-1.91.5-.86-.57h0ZM96.12,112.72c-.64-.11-.82-.25-.95-.87-.12-.56.23-1.18.61-1.6.26-.28.61-.61,1.02-.49.41.11.57.51.68.8.24.63-.02,1.37-.71,1.87-.19.14-.42.32-.65.28h0ZM67.78,281.69c-.25,0-.45-.24-.68-.3-1.14-.29-2.24-1-3.32-1.45-.47-.2-.52-.1-.83-.33-.58-.43-.33-1.33,0-1.84,1.01-1.63.62-3.12.27-4.91-.14-.71.18-1.35.2-2.08.03-1.02-.2-2.04-.21-3.06-.01-1.27.19-2.53.41-3.79.48-2.69,1.87-4.77,2.86-7.25.48-1.19,1.02-2.38,1.57-3.54.67-1.42,1.01-2.97,1.34-4.5.11-.52.38-.99.63-1.45,1.3-2.32,1.44-6.04,2-8.55.36-1.64,1.75-2.74,1.96-4.44.17-1.34.22-2.59.41-3.92.04-.26-.05-.53,0-.79.11-.55.62-.62.99-.24.45.47.41.5.85,1.02.28.34.8,1.11,1.34,1.52.54.41,1.36.5,1.31-.54-.05-.96-.86-1.81-1.32-2.66-.87-1.57-1.63-3.2-2.45-4.79-.31-.6-.16-.67-.41-1.12-2.73-4.77-4.72-11.98-4.2-17.37.13-1.39.98-2.69,1.81-3.82.32-.43,1.08-.83,1.12-1.38.06-.9,0-.91-.12-1.47-.15-.66-.47-1.28-.63-1.94-.27-1.16-.92-2.74-.32-3.82.61-1.11,1.17-1.61,1.42-2.87.1-.52.61-1.15,1.15-.64.67.64.78,1.58,1.18,2.4,1.67,3.4,3.58,6.87,4.12,10.78.19,1.37-.18,2.79.13,4.16.39,1.72.43,3.44.88,5.13.24.89,1,2.33-.27,2.63-.44.1-.47.02-.59-.06-1.29-.9-1.8-2.67-2.59-3.96-.25-.41-.38-.75-.58-1.19-.19-.41-.44-.69-.37-1.13.17-1.02.56-2.14,0-3.06-.35-.59-1.1-1.05-1.23-.19-.14.93.36,1.9.19,2.84-.14.77-.95.84-1.66.63-.4-.12-.6-.64-.97-.69-.19-.03-.35.21-.34.4.05.63.24,1.26.58,1.8.87,1.4,2.36,2.36,3.22,3.77.46.75.78,1.62,1.18,2.4.27.53.16.59.41.99.39.61.75,1.69,1.62,1.38.33-.12.69-.73.83-.78,1.07-.41,1.64-.04,2.29.79.85,1.09.8,1.14.94,1.55.49,1.48.7,3.04,1.12,4.54.31,1.15.49,1.61.72,2.02.23.41.35.77.5,1.2.16.45.33.71,1.17,2.17.35.61.74,1.21,1.2,1.74,1.41,1.64,2.77,3.35,3.82,5.23.38.69.37.7.54,1.16.08.23.16.52.03.72-.25.4-.66.27-1.07.07-1.4-.69-3.15-1.35-4.31-2.43-.69-.64-.82-1.7-1.36-2.48-.5-.72-1.08-1.39-1.77-.56-.41.49-.25,1.27-.04,1.84.59,1.6,1.98,2.46,3.48,3,1.56.56,3.73.76,4.81,2.09.33.4.17,1.09-.39,1.23-.49.12-1.01-.03-1.48.12-.49.15-.81.37-.64.88.2.61.5.79,1.1.58,1.1-.38,2.12-1.35,3.32-1.36.11,0,.24.08.29.18.35.72-.28,1.81-.79,2.33-4.16,4.17-9.04,8.35-13.78,11.98-3.32,2.54-6.52,5.3-7.31,9.7-.46,2.58-.12,5.08-.2,7.67-.04,1.15-.15,2.31-.84,3.35-.32.48-.83.78-1.06,1.31-.27.6.04,1.33-.26,1.91-.51.98-1.78,1.55-2.87,1.55h0ZM155.73,314.66c-.31.01-.62.04-.92-.02-1.65-.32-3.06-1.64-3.36-3.3-.18-.99.54-1.72.91-2.6.12-.29.22-.59.26-.89.04-.3.06-.61,0-.91-.23-1.14-.73-1.89-.64-3.09.04-.57-.04-1.14,0-1.71.07-.96.09-1.91.24-2.86.27-1.66,1.67-3.08,2.52-4.51.54-.92.71-1.88.99-2.91.23-.83.34-.8.38-1.12.19-1.59.69-3.13.71-4.73.02-1.26-.24-1.91-.2-2.88.03-.64.49-1.67.87-2.17.16-.21.18-.23.42-.28.87-.19,1.99-.37,2.86-.87.52-.3,1.01-.67,1.22-1.21.38-.99-.25-1.33-1.04-1.48-.79-.14-1.83-.01-2.26-.36-.64-.52-.51-1.57-.47-2.35.04-1.02.26-1.23.26-1.68,0-.99-.23-1.98-.2-2.97.06-2.16.08-4.61.88-6.62.49-1.23,1.11-2.31,1.21-3.61.09-1.2-1.25-2.41-.12-3.39.19-.16.51-.13.69-.3.6-.59.68-1.13.84-1.95.14-.75.39-1.37.41-2.13.02-.74-.01-1.48-.12-2.21-.09-.62-.26-1.22-.45-1.82-.16-.49-.43-.8-.6-1.37-.35-1.2-1.07-2.42-1.59-3.55-.07-.15-.09-.35-.03-.49.15-.32.54-.48.62-.78.35-1.37-2.07-2.59-2.83-3.41-.33-.36-.69-.71-.87-1.16-.62-1.54-.55-3.35-.44-4.99.04-.55.19-1.11.44-1.6.42-.83.9-1.61,1.41-2.4.08-.12.07-.3.16-.41.66-.77,1.43-1.38,1.88-2.28.27-.53.19-.57.21-1.11.03-.76-.17-1.56.19-2.25.35-.67,1.11-1.11,1.44-1.79.2-.41.35-.85.46-1.29.11-.48,0-.5.13-.75.36-.7.5-1.07.52-1.87.04-1.94.25-4.11-.05-6.06-.21-1.34-.67-2.58-1.64-3.59-.42-.43-.88-.84-1.12-1.41-.28-.67-.47-1.11-.52-1.55-.13-1.27.02-2.36-.24-3.5-.22-.97-.83-2.18-1.65-.74-.14.24-.21.52-.22.8-.03,1.08.14,2.16.13,3.24-.01.81-.06,1.63-.22,2.42-.19.94-1.25,1.73-1.09,2.67.09.55,0,.59.53,1.68.7,1.42,1.2,2.58,1.14,4.12-.03.74-.16,1.48-.32,2.21-.07.33-.33.61-.39.94-.21,1.14-.99,2.25-1.4,3.32-.2.5-.29.95-.45,1.47-.27.87-.83,3.85-2.33,2.98-.58-.34-.92-.92-1.1-1.57-.35-1.29-.62-2.58-.99-3.85-.21-.7-.4-1.3-.63-1.98-.14-.42-.29-.34-.48-.81-.37-.91-.81-1.83-1.28-2.69-.61-1.11-1.36-2.22-1.93-3.36-.18-.36-.25-.76-.41-1.12-.34-.74-.64-.97-.49-1.74.13-.65.25-.64.53-.87.55-.46,1.39-.76,1.67-.98.53-.42.83-.97.99-1.61.08-.34.03-1.92.02-2.1-.05-1.73-.04-3.47-.23-5.19-.05-.43-.62-.68-.76-1.1-.12-.37.09-.82-.06-1.18-.43-1.03-.38-1.34.53-1.99.49-.35,1.15-.53,1.55-.98.64-.73.47-.85.75-1.26.13-.19.41-.25.56-.43.27-.33.51-.7.69-1.09.47-.99.77-2.17,1.06-3.22.19-.67.68-1.33.55-2.03-.15-.83-.58-1.59-.7-2.42-.19-1.37.1-2.86-.35-4.19-.25-.74-.52-1.41-1.03-2.01-.3-.36-.49-.81-.76-1.19-.3-.42-.62-.85-.85-1.33-.19-.37-.39-.75-.46-1.14-.08-.46-.09-.7.26-1,.13-.11.34-.1.5-.04.65.27,1.21.67,1.89.87.29.08.52.33.81.4,1.2.27,2.38.66,3.59.86.74.13.76,0,1.1.12.54.19.89.29,1.43.45,3.6,1.12,6.35,3.6,8.97,6.2.92.91,1.79,1.89,2.62,2.9.18.23.25.17,1.89,2.12,3.37,4,6.21,7.81,8.26,12,1.8,3.7,2.96,7.72,3.23,12.49.39,7.06-3.1,15.44-6.15,21.72-1.56,3.21-3.02,6.61-3.85,10.1-.2.84-.27,1.28-.41,2.12-.52,3-.73,5.17-2.04,7.95-.32.69-.48,1.41-.5,2.17-.05,1.92-.66,2.24-1.32,3.97-.15.38,0,.41-.08.97-.06.36-.33.67-.38,1.03-.22,1.57-.4,3.15-.99,4.62-.23.58-.28.6-.78.96-.62.44-1.28.17-1.47-.5-.24-.87-.07-1.75-.36-2.61-.08-.25-.31-.44-.39-.68-.28-.89.15-1.51.27-2.39.12-.9-.09-1.81-.14-2.71-.02-.3,0-.61-.05-.9-.09-.48-.44-.91-.84-.46-.27.32-.22.81-.31,1.22-.09.41-.21.82-.24,1.24-.11,2.02-.84,3.91-.65,5.94.08.82.5,1.53.73,2.33.1.34.37.6.49.94.13.36.08.78.24,1.13.88,1.94.59,2.04,2.24.6.56-.49,1.27-.8,1.62.38.19.63.14,1.32.1,1.98-.05.98-.02,1.01-.27,1.59-.65,1.54-1.97,2.63-2.76,4.09-.25.45-.09.5-.21.98-.28,1.07-.6,2.15-.79,3.24-.06.35-.32.64-.39.98-.21,1.1-.61,2.28-.87,3.38-.77,3.2-2.08,6.46-2.29,9.72-.23,3.48-.87,4.44-1.47,5.85-.2.47-.4.99-.58,1.67-.64,2.39.44,1.47-1.23,3.83-.92,1.29-1.24,2.47-.36,4.26.47.96,1.39,1.68,1.81,2.67.54,1.27-.01,1.74-1.27,1.98-.71.13-1.43.11-2.14.14h0ZM146.42,256.25c-.76.02-1.27-.17-1.8-.73-.31-.33-.44-.44-.49-.68-.3-1.52-.25-3.04-.46-4.58-.15-1.09-.24-2.18-.39-3.27-.04-.27-.13-.25-.17-.64-.14-1.68-.31-3.35-.66-5.02-.26-1.26-.63-2.53-.42-3.8.17-1.06,1.54-1.53,2.45-2.03.59-.32.53-.42.94-.57.8-.3,1.4-.75,2.23-.34.21.1.42.23.58.4.99,1,1.46,2.71,2.65,3.47.56.35,1.04.32,1.17-.36.14-.7-.37-1.19-.78-1.73-.58-.78-1.58-1.95-1.13-2.99.11-.26.31-.49.54-.65.29-.2.7-.22,1-.42.36-.24.59-.64.96-.88.12-.08.31-.1.45-.02.32.17.68.4.75.77.34,1.59.17,1.62.35,2.44.22,1.04.37,2.05.6,3.08.1.46.48.83.59,1.28.14.54.2,1.02.26,1.56.09.93.26,1.88.15,2.81-.09.78-.45,1.51-.76,2.23-1.32,3.1-2.94,6.2-5.19,8.72-1.03,1.16-1.88,1.91-3.43,1.94h0ZM148.68,244.07c-.12,0-1.14-.32-1.53-.52-.76-.39-1.03-.99-1.16-1.79-.17-1.01-.35-3.56.91-3.85.78-.18,1.47.6,2,1.16.86.93,1.98,2.13,1.82,3.45-.1.89-.51.98-1.3,1.35-.23.11-.48.2-.74.2h0ZM147.42,247.69c-.57-.02-1.13-.48-.73-1.03.45-.61,1.61-.89,2.02-.04.05.11-.04.27-.14.35-.34.29-.7.73-1.14.72h0ZM153.91,229.51c-.91-.02-1.55-.98-.95-1.81.32-.44.89-.61,1.29-.98.32-.29.59-.63.84-.98,1.59-2.2,2.86-4.35,3.21-7.13.04-.34.27-.64.3-.98.05-.54-.1-1.08-.04-1.62.17-1.53-.06-3.23-.43-4.74-.26-1.06-.33-2.16-.3-3.24.04-1.16,1.27-2.56,2.24-1.44.68.77.23,1.93.46,2.92.25,1.04.53.96.61,1.63.21,1.68.36,3.39.27,5.08-.06,1.1-.52,2.09-.89,3.11-.32.88-1.05,1.65-1.27,2.57-.34,1.4-.66,2.97-1.36,4.24-.06.1,0,.25-.07.35-.82,1.42-2.21,3.04-3.94,3.01h0ZM147.68,232.69c-1.29-.17-2.6.29-3.86,0-.92-.21-1.17-1.53-1.5-2.31-.25-.58-.15-1.22-.36-1.82-.58-1.65-.96-3.36-1.58-5-.4-1.05-.75-2.08-1.22-3.09-.42-.91-.8-1.84-1.28-2.74-1.11-2.06-3.17-3.55-3.94-5.8-.08-.22-.1-.48-.04-.7.32-1.06,1.55-1.23,2.51-1.12,1.2.14,2.17.98,2.85,2.02.72,1.1,1.06,2.35,1.37,3.61.31,1.24.46,2.45.76,3.68.23.94.84,1.86,1.59,2.47.29.24.54.29.72-.04.68-1.24.15-2.93-.29-4.2-.29-.85-.87-1.63-1.35-2.38-.42-.65-.79-1.34-1.2-2-.14-.23-.09-.54-.22-.78-.68-1.27-1.14-2.71-.65-4.09.32-.89.48-.83.66-.97.37-.29.77-.58,1.2-.77.75-.34,1.68-.48,2.02.4.09.23.03.51.13.74.39.88.47.84.54,1.16.08.39.04.79.15,1.18.25.89.49,1.75.75,2.63.38,1.26.91,2.38,1.42,3.61.61,1.48,1.14,2.98,1.55,4.52.12.46.53.84.58,1.11.19.92.5,1.72.84,2.59.29.75.4,1.18.63,1.94.52,1.75.93,4.19-.47,5.56-.32.32-.81.42-1.25.52-.34.08-.7.12-1.05.08h0ZM136.73,231.9c-.86-.06-1.22-.35-1.1-1.18.1-.64.74-.99,1.06-1.55.38-.66.45-1.47,1.03-1.98.4-.35,1.15-.34,1.53,0,.91.8,1.78,1.86,1.26,3.08-.26.6-.37.53-.46.63-.23.23-.5.44-.8.59-.82.41-1.62.49-2.52.42h0ZM136.09,235.71c-.6-.03-1.18-.32-1.52-.84-.19-.29-.2-.62-.14-.97.08-.45.38-.76.78-.96.82-.41,2.21-.55,3.06-.17.95.43,1.11.61,1.01,1.68-.13,1.43-2.11,1.31-3.19,1.26h0ZM191.87,188.85c-1.98-.4-3.46-2.43-5.14-3.43-2-1.19-4.36-2.03-6.2-3.46-.31-.25-.52-.51-.66-.76-.29-.52-.59-1.03-.79-1.58-.28-.8-.28-.8-.32-1.04-.09-.52-.2-1.07-.08-1.59.14-.67.57-1.05,1.23-1.18,1-.19,2.04-.09,3.06-.08,1.7.02,3.43.09,5.05.61.92.3,1.63.74,2.24,1.48.71.86,1.16,2.07,2.12,2.65.85.51,1.87.72,2.72,1.24.98.6,1.52,1.98,1.49,3.11-.02.62-.23,1.22-.43,1.82-.11.33-.26.65-.48.91-.44.52-.83.96-1.48,1.13-.75.2-1.56.3-2.32.15h0ZM191.7,185.57c-.27.04-.5-.19-.75-.28-.75-.27-1.51-.5-2.1-1.04-.81-.74-1.47-1.58-2.43-2.15-.64-.38-1.15-.5-1.88-.78-1.01-.37-2.29-.49-1.31-1.64.15-.18.29-.38.34-.61.05-.23,0-.46-.04-.69-.04-.17-.23-.29-.08-.39.37-.28.96-.14,1.44.02.63.2,1.29.58,1.48,1.13.17.48,0,.75.41,1.04.53.37,1.25.43,1.74.86.35.31.21.85.42,1.26.11.2.3.34.49.48.21.15,1.65.79,2.43,1.46.61.53.87,1.19-.18,1.34h0ZM178.16,183.13c-1.03,0-1.4-.83-1.91-1.65-.47-.75-1.16-1.36-1.56-2.15-.15-.3-.18-.71-.05-1.02.56-1.36,2.52-1.6,3.19-.26.38.78.43,1.57.91,2.31.26.4.12.47.41,1.13.54,1.22.26,1.64-.98,1.64h0ZM119.67,184.41c-1.04-.25-1.5-1.39-2.03-2.3-.27-.46-.46-.98-.56-1.5-.12-.67-.09-1.3.05-1.92.06-.28.08-.64.34-.84.56-.45,1.06-.21,1.42.38.58.93,1.29,1.86,1.8,2.83.42.79.28,2.16-.06,2.97-.17.42-.52.49-.96.39h0ZM129.2,208.81c-.42-.07-.45-.06-.87-.38-1.64-1.23-3.18-2.79-4.24-4.57-.54-.9-1.39-1.71-1.72-2.71-.2-.59.19-1.09-.21-1.6-.42-.54-1.01-.85-1.19-1.52-.06-.23-.08-.48-.04-.71.1-.5.38-.79.38-1.07,0-.7-.47-1.25-.58-1.93-.08-.45-.23-.94-.07-1.37.43-1.19,1.4-.77,2.14-.12.49.43.64.7.71.89.14.4.16.85.33,1.25.14.33.29.27.39.77.23,1.16.27,2.39.62,3.52.32,1.02.75,2.05,1.39,2.91.36.48.35.5.61.76,1.18,1.16,2.76,1.91,3.72,3.27.63.9.63,2.09-.54,2.55-.26.1-.56.11-.83.07h0ZM142.07,204.4c-.28-.08-.35-.12-.39-.37-.28-1.6-.57-3.16-.91-4.77-.2-.94-.78-1.7-1.19-2.57-.48-1-.83-2.12-1.47-3.03-.57-.82-1.47-1.46-1.79-2.4-.23-.66.07-1.35.2-2.04.16-.86.1-1.8.96-2.17.37-.16.76-.12,1.12.04.29.13.52.39.76.6.08.07.16.17.21.27.63,1.16.99,2.4,1.42,3.65.12.36.39.57.62.85.84.98,1.55,2.21,1.88,3.45.19.72.23,1.41.37,2.13.23,1.15.35,2.37.14,3.51-.18.97-.42,1.96-1.1,2.7-.2.22-.54.24-.83.16h0ZM145.17,199.11c-.27-.17-.46-.41-.61-.69-.44-.83-.41-2.03-.39-2.86,0-.2.1-.41.24-.55.66-.64,1.38-.47,1.59.36.22.89.38,1.81.32,2.71-.03.44-.24.73-.62.97-.15.1-.38.15-.53.05h0ZM145.66,204.21c-1.09-.26-1.06-1.86-1.01-2.85.03-.57.12-1.27.73-1.37.81-.14,1.34.66,1.55,1.56.17.7.14,1.45-.08,1.87-.3.57-.6.94-1.2.79h0ZM146.54,191.02c-.1-.01-.19-.09-.26-.17-.6-.69-.85-.99-.23-1.83.41-.55.71-1.17.96-1.81.2-.5.42-1.01.31-1.54-.06-.31-.34-.55-.39-.86-.1-.54-.13-1.09-.09-1.63.03-.33.28-.61.3-.94.17-2.23-.06-4.55-.36-6.76-.11-.84-.55-1.58-.74-2.42-.04-.2-.12-.38-.2-.56-.1-.21-.31-.45-.48-.72-.29-.45-.61-1.02-.23-1.36.13-.12.37-.08.54-.04.33.09.6.33.87.56.99.81,1.67,2.12,2.1,3.2.33.85.53,1.43.74,2.33.26,1.16.49,2.27.79,3.42.27,1.03.45.98.51,1.33.3,1.8.46,3.65.38,5.47-.03.6-.35,1.16-.62,1.71-.5,1.01-1.46,1.64-2.53,2.02-.38.14-.53.42-.8.52-.18.07-.38.08-.57.06h0ZM142.11,188.58c-.81-.06-.85-.67-1.19-1.34-.1-.19-.33-.31-.42-.5-.62-1.27-2.04-1.76-1.62-3.3.24-.86.82-1.54.97-2.42.11-.66-.1-1.35-.02-2.01.11-.91.23-1.75.43-2.65.2-.92,1.23-1.52,1.4-2.44.13-.65-.4-1.14-.66-1.75-.13-.32-.21-.79-.28-1.23-.07-.45-.17-.97.13-1.2.41-.32.79-.21,1.05.23.39.68.45,1.5.82,2.19.34.65.92,1.05,1.14,1.74.19.58.15,1.2.36,1.78.22.63.48,1.25.8,1.84.33.62.43.58.48.81.36,1.72.37,3.5.41,5.25.02.7-.21,1.11-.35,1.77-.27,1.33-1.19,2.58-2.39,3.12-.32.14-.7.15-1.05.13h0ZM173.87,184.1c-.93-.18-.93-.23-1.25-.43-.48-.3-1.08-.7-1.56-1.18-.7-.7-1.16-1.54-.66-2.43.52-.92.99-.94,2.04-.73,1.38.27,2.93,1.44,3.28,2.87.25,1.05.34,1.4-.66,1.81-.37.15-.8.16-1.18.09h0ZM126.86,292.52c-.97-.06-1.62-.43-1.72-1.48-.22-2.28-.14-4.45.13-6.73.05-.42-.06-.86.02-1.27.17-.86.33-1.69.57-2.53.56-1.96-.44-4.08-1.18-5.84-.34-.81-.68-1.58-1-2.4-.38-.96-.92-1.9-1.12-2.92-.2-1.03-.49-2.25-.17-3.25.51-1.64,1.49-3.06,2.87-4.12.85-.65,1.96-.92,2.15.43.17,1.2-.32,2.44.1,3.59.27.74.9,1.48,1.75,3.28.23.5.22,1.04.13,1.58-.2,1.22-.4,1.19-.45,2.21-.06,1.16,1.13,1.66,1.8,2.52.69.89.49,2.35.49,3.45,0,.58.04.59-.33,1.99-.11.43-.54,1.01-.65,1.58-.08.44-.1,1.02.34,1.12.61.14.71-.96.91-1.39.36-.8.97-1.46,1.33-2.26.27-.62.5-1.28.51-1.96,0-.48-.06-.97-.21-1.42-.33-.98-1.07-1.47-1.7-2.28-.27-.35-.43-.78-.55-1.2-.07-.26-.1-.54-.04-.8.12-.57.25-.98.36-1.55.07-.41.32-.69.21-1.09-.55-1.91-.2-3.88-.87-5.7-.32-.87-.85-1.64-1.1-2.53-.14-.49,0-1.04-.12-1.53-.36-1.32-1.12.21-1.83.42-.75.21-1.05.15-1.29-.56-.12-.37-.08-.77-.06-1.15.08-1.28.68-2.12,1.71-2.83.72-.5,1.77-1.06,1.89-1.96.17-1.26-.22-2.28.73-3.21.49-.48,1.19.06,1.46.64.1.2.55,6.85.66,7.5.08.48.23,1.74.53,3.43.11.64.33,1.26.45,1.9.48,2.62.88,5.2,1.29,7.82.13.88.37.83.59,1.99.34,1.81.66,3.63.51,5.46-.09,1.1-1.25,1.84-1.83,2.77-.41.66-.24,1.31-.33,2.08-.08.77-.28,1.51-.58,2.22-.26.6-.22.65-.81,1.37-1.24,1.51-2.53,2.99-3.99,4.29-.42.38-.96.32-1.52.28h0ZM133.72,297.9c-1.47-.38-1.12-1.23-1.39-2.64-.15-.76-.92-1.16-1.15-1.87-.51-1.59-.28-2.89,1.32-3.61.18-.08.39-.09.58-.03.94.29,1.64,1.09,2.09,1.97.11.21.11.47.21.69.46.96.93,1.84.9,2.9-.01.41-.12.83-.29,1.21-.25.57-.8,1.16-1.43,1.31-.27.06-.56.14-.83.07h0ZM127.38,304.85c-.98-.27-1.54-.81-1.04-1.84.33-.7.9-1.21,1.3-1.86.08-.13.13-.29.16-.45.18-1.15.24-2.02.71-3.11.25-.57.15-.95.05-1.57-.11-.65-.29-1.08.3-1.32.7-.27,1.39-.02,2.04.36.16.09.32.27.35.46.16,1.15-.3,2.42.54,3.24.52.51,1.39.34,1.57,1.12.15.63-.26,1.12-.67,1.59-.47.55-1.35,1.57-2.62,2.59-.41.32-.87.58-1.37.69-.43.09-.89.21-1.31.1h0ZM77.53,315.2c-1.91-.77-3.6-2.18-5.08-3.55-.54-.5-.4-.94-.31-1.66.04-.32.04-.65-.05-.95-.14-.49-.37-.92-.7-1.3-.1-.12-.13-.18-.72-.19-.76-.01-1.56.29-2.3.32-.75.03-1.54-.06-1.99-.76-.2-.32-.22-.71-.28-1.08-.05-.32-.07-.65-.05-.98.23-3.8-.19-7.38-.89-11.12-.26-1.4-.32-2.82-.57-4.22-.33-1.87-.84-3.65-1.25-5.5-.32-1.41-.39-1.45-.24-2.06.13-.52.57-.56,1.06-.43.49.13,1.01.43,1.3.6.9.54,1.83.78,2.82,1.12.79.27,1.58.89,1.68,1.73.29,2.52.42,5.06.62,7.59.07.92.09,1.85.32,2.74.21.79.54,1.47.82,2.24.52,1.43,1.88,2.24,2.68,3.5.53.84.21,1.79.41,2.74.05.23.16.45.31.65.21.29.8.69,1.25,1.21.2.23.13.28.57,1.02.22.36.47.72.79,1,.41.36.79.61,1.34.62.99.01,1.49-1.02,2.37-1.4.58-.25,1.47-.32,2.19-.19.57.1,1.13.35,1.29.95.1.38.19.86-.02,1.2-.79,1.28-1.88,2.34-2.75,3.56-.71.99-.48,1.14-1.13,1.95-1,1.26-2.05,1.23-3.48.66h0ZM84.87,320.01c-1.41-.42-2.9-.97-3.83-2.08-.99-1.17-.47-1.86.41-3.02.79-1.03,1.02-1.34,1.48-1.83.55-.59,1.21-1.29,1.92-1.76,1.13-.75,1.98-.67,2.8.22.59.64.83,1.59.96,2.45.1.63.15,1.29.1,1.94-.04.59-.29,1.14-.35,1.73-.08.72-.12,1.38-.44,1.88-.72,1.13-1.98.8-3.05.48h0ZM107.88,333.63c-.94-1.77.28-3.88.62-5.7.12-.62.32-.82.88-1.12.46-.25,1.24-.31,1.69-.04,1.22.76,1.55,1.98,3.07,1.32.46-.2,1.35-.96.67-1.35-.84-.49-1.97-.38-2.79-.93-.87-.58-1.94-1.37-1.31-2.43.56-.94,1.55-1.43,2.34-2.18.75-.71,1.09-2,.85-3.02-.26-1.11-.88-2.89-.21-3.94.25-.4.45-.84.55-1.3.19-.88.14-1.74.83-2.36,1.3-1.16,1.65-2.34,2.29-3.94.44-1.09,1.38-1.98,1.81-3.08.3-.75.26-1.57.78-2.21.75-.92,1.64-.26,2.31.46.4.43.74.97,1.11,1.24.73.54,1.7.92,1.92,1.85.06.26.12.54.04.8-.13.47-.39.9-.64,1.31-.77,1.29-1.8,2.48-2.24,3.92-.38,1.26-.53,1.76-.57,2.49-.06,1.18.16,2.36.14,3.54-.01,1.04-.46,1.44-1.4,1.97-1.11.62-1.99,1.25-2.62,2.41-.26.47-.71,1.03-.53,1.54.62,1.74,2.18,3.77,1.43,5.64-.43,1.08-2.04,1.59-3.01,2.09-.69.36-1.41.8-2.09,1.16-1.08.59-2.16,1.21-3.26,1.79-.95.5-2.04,1.25-2.68.05h0ZM117.28,314.98c-.27-.2-.5-.44-.56-.71-.18-.72.22-.91.92-1.09.45-.12.96-.21,1.37-.14.4.07.71.29.76.8.03.32-.12.63-.36.89-.73.81-1.27.87-2.13.24h0ZM150.53,320.9c-.55-.04-.92-.21-1.16-.72-.11-.23-.11-.52-.04-.76.18-.68.56-1.3.77-1.97.34-1.05.08-1.13.57-2.44.26-.7,1.27-.6,1.9-.29.78.38,1.39.96,2.25,1.06,1.14.14,2.42-.4,2.78.84.32,1.12-.14,2.14-1.14,2.76-.93.58-1.99.84-3.05,1.12q-.64.17-.95.23c-.63.11-1.28.21-1.93.17h0ZM81.81,223.72c-.15-.35-.22-.76-.3-1.18-.2-1.03.61-2.26,1.45-1.17.43.55.41,1.4.21,2.16-.26,1-.75,1.58-1.36.19h0ZM83.07,247.78c.51-1.13,1.03-2.26,1.52-3.4.08-.2.18-.41.19-.62.02-.69-.18-1.22-.28-1.9-.15-1.07.78-1.44,1.65-1.03.99.46.91.83.94,1.95,0,.12-.01.25-.07.35-.95,1.84-1.7,3.79-3.02,5.38-1.19,1.42-1.67.92-.93-.72h0ZM67.25,278.35c-.18.02-.5-.15-.79-.31-.49-.25-.94-.73-.34-.97.69-.27,1.24-.1,1.62-.73.37-.62.66-1.24.7-1.47.16-.79.21-.78.35-1.6.15-.86,0-1.68.12-2.48.26-1.7,1.3-1.27,1.13.37-.18,1.65.39,3.3-.49,4.85-.6,1.06-1.01,2.18-2.3,2.35h0ZM69.81,262.92c-.65-.03-1.38-.25-1.85-.73-.12-.12-.22-.27-.25-.43-.07-.37.12-.7.35-.97.82-1.02,1.06-.55,1.72.37.39.55.46.51.73.65.19.1.92.15.86.41-.15.6-1,.72-1.56.69h0ZM53.3,144.58c-.01-.23.01-.49.18-.74,1.35-2.13,2.46-3.57,2.75-4.12.18-.34.34-.67.42-.96.11-.37.09-.79-.5-.89-.57-.1-.79.19-1.09.57-.96,1.2-1.5,2.72-2.42,3.94-.38.5-.42.48-.68.61-.65.32-1.43.46-2.08.1-1.07-.58-2.93-2.18-2.2-3.46.7-1.24,1.69.36,2.63.47.84.1,1.41-.77,1.82-1.44.25-.4.74-1.28.9-2.03.11-.51.1-1.13-.4-1.21-.73-.12-1.04.57-1.69.97-.71.43-1.54.12-2.35.26-1.08.18-1.13,1-1.81,1.78-.44.5-1.08.63-1.72.46-.31-.08-.56-.3-.71-.59-.53-1.07.67-2.58,1.17-3.49.38-.69.37-.71.47-1.21.17-.94.28-1.79.65-2.66.48-1.13,1.66-1.49,2.71-2.09.95-.54,1.54-1.56,2.31-2.33.99-1,2.21-1.72,3.19-2.71.46-.46.73-1.12,1.23-1.56.32-.28.81-.34,1.18-.12.49.3.49.3.73.53,1.61,1.56,3.05,4.5,3.39,5.97.34,1.47.61,1.1.72,2.07.11.97.27,2.61.19,3.64s0,1.11-.66,2.53c-.65,1.42-2.27,4.15-4.16,5.5-.23.17-.18.23-1.61,1.47-.3.26-.76.62-1.11.91-.49.41-1.4.97-1.46-.16h0ZM92.63,97.96c-.35-.02-.72-.16-.88-.48-.54-1.04-.33-2.45-.23-3.59.04-.45.16-.9.37-1.29.29-.54.81-.43,1.18-.03.19.21.21.54.34.82.53,1.2,1.34,2.34,2.12,3.31.14.17.14.48.03.68-.17.31-.25.27-.39.29-.85.08-1.67.34-2.53.29h0ZM63.41,89.11c-.82-.18-1.47-.87-1.65-1.71-.24-1.1.08-1.33,1.2-1.15.76.12,1.1.62,1.27,1.35.23,1.01.25,1.73-.82,1.5h0ZM62.7,92.31c-.97-.13-2.11-.59-1.61-1.72.34-.77,1.61-.64,2.26-.26.22.13.43.34.47.6.17.9-.14,1.51-1.13,1.38h0ZM78.89,102.63c-.52-.08-.82-.38-1.1-.69-.78-.85-.6-1.32-.03-2.21.49-.76,1.16-1.39,1.8-2.02.48-.48.95-.98,1.54-1.32.61-.35,1.32-.54,1.83.01.24.25.22.29.24.47.13,1.76-.31,3.05-1.42,4.46-.41.53-.87,1.04-1.54,1.2-.43.1-.88.16-1.31.1h0ZM112.45,114.8c-2.39-.41-2.76-3.16-3.49-5.07-.07-.18-.12-.42-.02-.59.33-.56.71-1.17,1.53-1.75,1.9-1.32,4.04-2.19,6.06-3.31.09-.05.15-.14.25-.18,1.38-.59,2.74-1.3,4.16-1.8.88-.31,3.28-.14,2.93-1.53-.24-.94-1.55-1.06-.89-2.17.22-.38.52-.71.86-1,.36-.31.76-.6,1.21-.79,1.53-.63,3.2-.8,4.75-1.39.94-.36,1.87-1.14,2.8-.49.35.24.61.6.89.93.15.18.29.37.38.59,1.16,2.84,2.01,5.79,1.3,8.84-.15.62-.2.74-.55,1.22-.88,1.17-2.23,1.13-3.61,1.51-.88.24-1.67.4-2.5.75-.81.34-1.37,1.09-2.11,1.56-.18.11-.42.11-.6.21-1.18.65-2.48,1.26-3.72,1.77-1.37.57-2.72,1.35-4.16,1.67-.9.2-1.85.06-2.75.23-.58.11-1.32.62-1.5.65-.39.07-.79.2-1.18.13h0ZM88.86,67.26c-.39-.01-.65-.07-.75-.44-.08-.32.33-.56.65-.73.32-.17.71-.22.97-.35.69-.34,1.01-.85,1.7-.56.16.07.27.26.29.43.02.19-.06.41-.19.56-.39.46-.86.8-1.45.96-.4.11-.82.15-1.22.13h0ZM83.17,106.39c-.42,0-.79-.27-1.14-.5-1.59-1.06-3-2.41-4.58-3.5-.79-.55-1.79-1.18-2.33-1.96-.52-.75-.44-.81-.61-1.34-.15-.47-.07-.51-.21-.65-1.2-1.27-2.58-2.51-3.66-3.87-.42-.53-.43-.66-.65-.92-.67-.78-1.07-1.97-1.26-2.97-.16-.84-.14-1.17-.11-2.02.08-1.89.46-3.1,1.47-4.65.87-1.33,2.36-2.56,3.98-2.76.58-.07.95.12,2.19-.07.45-.07.69-.67.97-.26.19.26-.12.7.05.97.52.8,1.72,0,2.46-.28.31-.12.59,0,.78.24.46.58.68,1.5,1.31,1.93,1.42.96,2.62.85,3.4,2.52.43.92.59,1.77,1.29,2.5.13.14.35.23.55.24.68.04,1.38.05,2.04-.11,1.13-.27,2.09-1.13,2.68-2.15.25-.43.83-1.26,1.46-1.7.38-.27.83-.46,1.19-.19.25.19.15.52.03.79-.16.34-.5.66-.64.94-.23.48-.46,1.02-.48,1.55-.05.93-.02,1.87.15,2.78.08.46.14.46,1.16,2.04.4.62.96,1.16,1.4,1.76.42.58.56.82.87,1.41.46.89.19,1.94.54,2.86.17.43.68.44.99.33.31-.11.58-.41.65-.9.11-.79.37-1.59.87-2.21.42-.53.52-.48.52-.58.02-.4-.13-.68-.21-.88-.29-.66-.26-.83.87-.57.84.19,1.63.03,2.36-.25,1.91-.74,3.1-1.9,3.54-3.92.14-.64.23-1.32.13-2.11-.04-.38-.16-.83-.11-1.24.1-.88.69-1.33,1.37-.61.2.22.39.48.49.78.11.32.22.65.23,1,.03,1.48-.14,2.8-.41,4.14-.32,1.62-.8,2.76-1.86,4.03-.21.25-.46.47-.95.26-1-.42-2.56-1.46-3.44-.42-.69.81-.83,1.74-1.01,2.79-.06.34-.05.67-.12,1.01-.1.43-.38.81-.46,1.25-.22,1.14-.84,2.24-2.06,2.23-.24,0-.73-.09-1.16-.29q-.61-.28-.94-.47c-.7-.4-1.07-1.05-1.58-1.67-.49-.59-.61-.85-1.34-.55-.93.38-1.53,1.25-1.84,2.23-.12.38-.09.81-.18,1.2-.06.23-.1.49-.25.68-.04.04-.13.05-.16,0-.26-.35-.15-.78-.29-1.18-.21-.6-.46-.92-1.05-1.16-.21-.09-.47-.04-.69.04-.76.27-1.43.65-2.05,1.17-1.07.9-.95,1.03-2.32,2.39-.63.63-.99.87-1.84.87h0ZM85.67,77.46c-.32-.02-.68-.08-1.04-.06-.5.03-.75.18-.89-.34-.04-.16.1-.31.17-.45.98-1.9.97-1.93,1.11-2.02.48-.33.93-.09,1.11.39.25.7.28,1.41.11,2.14-.06.27-.32.35-.57.34h0ZM101.17,164.26c-.48-.1-.38-.63-.56-1.06-.64-1.5-1.16-3.03-1.73-4.56-.34-.92-.17-.97-.44-1.64-.24-.61-.71-1.41-.79-2.18-.03-.35-.11-.78.16-.98.36-.25.74.23.97.68.23.44.42.97.47,1.24.1.52.06,1.05.17,1.57.11.52.41.92.6,1.41.13.36.1.77.24,1.13.45,1.21,1.16,2.38,1.59,3.6.18.5-.16.9-.68.79h0ZM93.67,141.52c-.42-.79-.43-1.92-.36-2.87.02-.22,0-.45.08-.64.21-.47.55-.22.81.1.16.2.37.39.41.58.15.69.29,1.66.19,2.47-.11.94-.68,1.21-1.14.36h0ZM133.11,170.86c-.11-.02-.25-.05-.3-.16-.08-.19.18-.56.41-.92.3-.46.69-.92.79-1.13.38-.78.75-1.57,1.35-2.19.15-.15.3-.21.49-.09.22.15.23.32.13.57-.23.59-.55,1.35-.9,2.07-.27.56-.59,1.09-1,1.43-.2.17-.42.31-.67.37-.1.02-.21.06-.31.04h0ZM81.47,137.43c-.89-.49-.57-1.15.03-1.87,1.62-1.97,3.17-3.8,4.39-6.04.54-.99,1.07-2,1.64-2.98.62-1.06.79-1.78,1.17-2.87.34-.97.84-.87,1.14-.13.07.17-.07.89-.23,1.55-.15.6-.47,1.02-.66,1.61-.54,1.68-1.52,3.38-2.45,4.85-.81,1.28-1.61,2.59-2.48,3.82-.59.84-1.03,1.55-1.97,2-.17.08-.41.15-.57.06h0ZM75.89,140.48c-.92-.18-.28-.92.2-1.46.38-.43.81-.89,1.37-1.01,1-.22,1.67-.09,1.57,1.04-.08.84-.64,1.14-1.18,1.29-.54.14-1.22.29-1.96.14h0ZM72.9,137c-.23,0-.52,0-.67-.18-.36-.44.08-.93.41-1.27.95-.97,1.83-2.02,2.96-2.79,1.2-.82,1.37.43.89,1.27-.68,1.18-1.81,2.32-2.98,2.83-.19.08-.4.15-.61.15h0ZM72.11,131.69c.93-1.74,2.7-2.74,4.33-3.8,1.09-.71,1.5-.54.75.69-.73,1.2-1.86,2.33-2.81,3.19-.28.25-.8.65-.98.71-.74.27-1.91.37-1.3-.79h0ZM69.42,126.46c.3-.88.55-1.83,1.18-2.49.62-.65,1.09-1,1.93-.61.44.21.89.47,1.19.87.61.79-.89.76-1.49.95-1,.31-1.52,1.01-2.12,1.77-.14.18-.23.4-.42.55-.93.7-.41-.65-.27-1.04h0ZM76.06,120.49c-.54-.02-1.06-.24-1.45-.62-1-.97-.93-1.04-1.66-2.15-.2-.3-.21-.61-.05-.93.36-.75,1.36-1.43,2.17-1.62.23-.05.48-.08.71-.04.57.11,1.02.44,1.57.62.47.15,1.36.03,1.27.62-.13.87-.22,1.65-.35,2.52-.06.39-.05.45-.48.87-.53.51-.99.76-1.73.74h0ZM79.19,124.97c-.78-.03-.14-1.14.16-1.6.38-.59,1.7-2.25,2.05-.89.32,1.22-1.06,2.54-2.21,2.49h0ZM82.85,117.87c.19-.45.62-.91,1.01-1.23.58-.47,1.15-.2.98.62-.1.48-.52,1.01-.92,1.36-.66.56-1.48.26-1.07-.74h0ZM86.77,114.79c-.69-.06-1.58-.66-1.24-1.43.2-.46.71-1.02,1.21-.91.75.15,1.12.49,1.13,1.24.01.74-.41,1.16-1.1,1.11h0ZM86.5,121.47c-.41.05-.68-.44-.82-.83-.19-.53.41-1.7,1.03-2.42,1.23-1.43.94-.2.98.45.06,1.14.05,2.65-1.2,2.8h0ZM85.64,109.99c-.65-.14-.82-.61-.33-1.15.41-.45,1.19.19,1.07.68-.1.38-.34.56-.74.47h0ZM82.28,110.3c-.68-.14-.65-.27-.92-.47-1.16-.86-2.35-1.69-3.78-2.03-.34-.08-.6-.38-.95-.48-1.52-.41-3.1-.91-4.45-1.72-.17-.1-.27-.31-.29-.5-.16-1.67,2.63-.04,3.06.2,1.4.79,2.9,1.41,4.28,2.23.87.51,2.01.89,2.8,1.56.26.23.49.48.65.79.1.19-.19.45-.4.41h0ZM64.23,96.39c-1.6-.23.36-1.83,1.06-1.62.34.1.32.2.34.31.08.72-.77,1.4-1.4,1.31h0ZM122.42,126.06c-1.06-.25-1.93-1.23-3.02-1.36-1.97-.23-4.02-.01-5.97.31-1.18.2-2.06,1.15-3.21,1.48-.37.1-.63-.08-.54-.44.21-.77,1.41-1.06,2.09-1.35.36-.15.84-.36,1.1-.57.56-.46.57-.47.97-.98.77-1,.91-1.34,2.15-1.03.66.17,1.27.39,1.95.38,1.4-.02,2.79-.07,4.18-.22.32-.03.62-.16.91-.31.62-.34,4.07-1.96,3.09,0-.62,1.25-1.63,2.29-2.5,3.38-.43.54-.58.86-1.21.71h0ZM101.6,87.99c-.17-.51-.3-1.07-.18-1.54.2-.76.84-.9,1.43-.43.24.19.57.42.57.75,0,.46-.3.95-.56,1.36-.7,1.11-.97.72-1.26-.15h0ZM102.37,82.82c.02-.2.08-.41.16-.61.1-.24.24-.42.39-.55.45-.37,1-.21.81.62-.05.22-.12.47-.26.72-.37.66-1.21.81-1.11-.19h0ZM82.29,188.12c-.02-.31.03-.64-.06-.93-.13-.38-.35-.71-.58-1.03-.73-.98-1.61-2-1.79-3.17-.08-.53-.13-1.15.23-1.67.54-.78,1.41.25,1.99,1.21.35.58.69,1.12.76,1.37.19.67.53,1.22.71,1.89.16.57.2,1.18.09,1.76-.09.5-.29.99-.54,1.43-.91,1.59-.72.6-.82-.86h0ZM123.58,255.35c-.27-.01-.35-.24-.27-.56.13-.56.57-1,.79-1.53.21-.49.4-1,.53-1.52.08-.3-.2-.32-.02-2.02.12-1.07.99-1.86,1.34-2.87.23-.68.42-1.37.5-2.09.08-.7.17-1.25.29-1.94.05-.26-.05-.53,0-.79.1-.5.39-.96.45-1.47.06-.56.04-1.14-.09-1.69-.12-.49-.71-1.02-.61-1.51.2-.97.58-1.56.22-2.5-.27-.7-.29-.69-1.16-2.09-.66-1.05-.72-1.26.21-2.05.45-.39.95-.71,1.42-1.07,1.29-.99,2.63-2,3.6-3.31.78-1.04.73-1.08.81-1.22.42-.77.84-2.19,1.77-2.09.91.1.36,1.17-.02,1.88-.05.1-.17.46-.67.93-.95.87-1.07.74-1.48,1.23-.61.71-.46,1.6-.58,2.49-.11.82-.91.53-1.6.75-1.25.41-1.17.8-.97,2.09.08.51.31.42.58,1.11.35.87.6,1.77.84,2.67.13.49.45.92.56,1.42.21.94.1,1.33.38,2.26.36,1.18-.44,2.04-.76,3.12-.15.51.07.54-.06,1.32-.13.75-.31,1.34-.5,2.09-.21.82-.58,1.57-1.12,2.21-.68.83-1.7,1.44-2.23,2.39-.07.12.09.14-.03,1.1-.1.79-.67,1.21-1.13,1.87-.27.38-.53,1.42-.99,1.4h0ZM119.64,232.89c-1.06-.13-1.04-.69-.79-1.3.08-.19.15-.44.31-.71.7-1.12,1.25-2.33,1.97-3.43.18-.27.48-.45.65-.73.61-.94.52-1.93.76-3.02.28-1.27,1.5-1.81,2.04-.33.2.54.19,1.15.09,1.72-.14.79-.28,1.52-.63,2.23-.56,1.13-.6,1.12-1.01,1.59-.54.62-1.29,1.07-1.75,1.76-.48.73-.7,2.34-1.65,2.22h0ZM106.08,241.77c-.4-.32-.77-.71-1.15-1.06-.05-.04-.06-.11-.1-.14-.02-.02-.06,0-.08,0-1.41-1.4-3.05-2.57-4.27-4.14-.5-.64-.9-1.35-1.33-2.03-.3-.47-.54-.84-.78-1.33-.28-.56-.88-.96-1-1.57-.34-1.75.04-3.72-.59-5.4-.31-.81-.64-1.47-.87-2.32-.1-.36-.87-2.09-.11-1.91.91.22,1.45,1.17,1.74,2.03.17.5,0,1.06.13,1.57.25,1.06.46,1.88.77,2.9.21.72.84,1.26,1.16,1.96.26.57.23,1.27.45,1.86.58,1.57,1.7,2.95,2.89,4.13,1.81,1.81,1.7,1.93,1.99,2.08.83.44,1.48-.32,1.27-1.09-.28-1-1-1.39-.61-2.39.25-.66.21-.71.66-1.2.58-.64,1.15-.82,1.96-1.06.46-.14.87-.44,1.33-.6.46-.16.46-.17.69-.21,1.57-.28,3.12-1.01,3.71-2.54.16-.4.08-.87.2-1.28.3-1.05.29-1.53,1.17-2.32.59-.52,1.28-1.1,1.28-1.93,0-1.64-.5-3.5.17-5.05.17-.4.38-.79.65-1.14.64-.84,1.27-1.87,2.32-2.06.53-.1.51.77.36,1.41-.15.63-.39,1.32-.53,1.61-.68,1.37-1.69,2.93-1.83,4.49-.03.31-.27.58-.3.89-.1.98-.23,1.85-.42,2.83-.29,1.46-.59,2.79-1.79,3.61-.63.43-.77.09-1.38.34-.95.39-1.5,1.39-2.2,2.13-.22.23-.51.42-.81.53-.35.12-.75.01-1.09.15-.81.32-.84.3-1.41.78-.44.37-.79.76-.83,1.34-.1,1.81.24,3.62.39,5.43.13,1.49-.47,1.76-1.75.74h0ZM100.8,222.18c-1.16-.2-.99-1.48-.91-2.55.06-.69.37-1.34.6-2,.31-.9.67-1.74,1.43-2.33.69-.54,1.52-.7,1.75.23.32,1.27-1.35,2.02-1.63,3.21-.2.87-.1,1.84-.47,2.65-.25.54-.22.87-.77.78h0ZM87.69,217.18c-.56-.11-1-.59-1.29-1.09-.17-.3-.38-.64-.29-.99.18-.71.73-.83,1.18-.7s1,.52,1.17,1.05c.15.48.28,1.27-.24,1.57-.16.09-.35.18-.52.14h0ZM104.71,212.29c-.38-.08-.49-.31-.52-.48-.03-.17,0-.43.24-.72.26-.31.66-.19.88,0,.22.2.42.6.18.89-.19.22-.49.37-.77.3h0ZM107.92,210.15c-.4-.14-.93-.5-.91-.97,0-.14.08-.27.16-.37.83-1.02.95-.93,2.3-2.79.74-1.01,1.3-1.83,2.22-2.7.27-.26.29-.61.44-.95.45-1.05.46-2.15.39-3.35-.07-1.25.53-2.42.82-3.64.09-.38.29-.94.68-.93.57.02.54.4.46.98-.08.52-.4.86-.24,1.36.38,1.13.32,1.5.1,2.68-.15.79-.2,1.51-.36,2.3-.16.77-.82,1.3-.99,2.07-.06.26.09.54,0,.79-.47,1.3-1.47,2.07-2.68,2.79-1,.6-1.16,1.97-2.13,2.65-.08.05-.18.11-.26.08h0ZM87.24,206.9c-.61-.12-.79-.43-.75-.82.04-.39.29-.86.53-1.29.43-.79.97-.84,1.43-.08.28.47.18,1.16-.14,1.65-.25.38-.63.62-1.07.54h0ZM86.51,211.45c-.14,0-.28-.12-.35-.24-.22-.43-.41-1.01-.42-1.52,0-.51.17-.94.71-1.08.68-.17.94.24,1.03.89.08.63-.22,1.15-.54,1.7-.08.14-.26.24-.43.24h0ZM89.98,202.42c-1.21-.18-1.03-.94-.5-1.69.24-.34.55-.67.84-.94.45-.43,1.03-.72,1.5-1.15.53-.5.81-1.21,1.33-1.71.45-.44.61-.31.81-.77.51-1.13.62-2.25,1.61-3.03,1.12-.9,2.53-1.42,3.63-2.33.42-.34.73-.8,1.09-1.21,1.06-1.22,2.13-2.13,3.63-2.83.81-.38,1.56-.81,2.34-1.26.24-.14.49-.28.68-.48.44-.45.49-.44.79-1.11.34-.75.48-1.42.99-2.07.41-.52.95-.92,1.37-1.43.21-.26.26-.22.61-.82.73-1.26.74-1.52,1.03-2.12.28-.59.53-1.17.82-1.75.09-.18.19-.41.38-.47.45-.14.67.49.65.86-.01.26-.12.5-.19.75-.11.41-.14.81-.23,1.25-.18.86-.6,1.66-1.02,2.43-.07.13-1.54,1.26-1.6,1.52,0,.04-.09.02-.11.05-1.86,2.74-1.77,2.81-2.39,3.49-.85.92-1.86,1.74-2.97,2.33-3.71,1.95-4.53,2.01-7.12,5.69-.92,1.31-2.53,1.94-3.68,3.03-.98.93-1.38,2.25-2.05,3.43-.54.95-1.11,2.53-2.26,2.35h0ZM104.47,181.14c-.57.04-.86-.53-.74-1.11.44-2.17.56-2.15.89-3.07.2-.57.56-1.08.7-1.66.26-1.09-.47-2.33-.71-3.41-.08-.36.05-.76-.1-1.09-.47-1.07-.53-1.05-.78-1.5-.22-.39-.55-.66-.76-.97-.27-.4-.54-.87-.21-1.39.12-.19.42-.26.65-.24.31.03.55.28.8.47.89.67,1.41,1.75,1.75,2.79.27.81.49,1.46.69,2.29.13.55.07.98,0,1.55-.05.38-.22.73-.25,1.11-.04.55.14,1.12.04,1.66-.19,1.05-.35,1.01-.44,1.69-.14,1.08-.34,2.8-1.53,2.88h0ZM116.09,274.37c-.93-.11-2.51.63-2.88-.28-.5-1.26,1.3-.8,2.19-1.2,1.29-.57,1.4-2.1,1.68-3.44.1-.48.42-1.52,1.03-1.03.1.08.21.21.21.35-.01.78-.26,1.53-.45,2.3-.18.72-.04,1.44-.28,2.12-.21.59-.84,1.25-1.49,1.18h0Z" style="fill-rule:evenodd;"/><path d="M88.42,358.72c4,0,7.83,1.05,11.31,2.94,3.49,1.89,6.64,4.63,9.29,8.02,2.65,3.38,4.8,7.41,6.29,11.89,1.49,4.47,2.31,9.39,2.31,14.56s-.83,10.08-2.31,14.55c-1.49,4.47-3.64,8.5-6.29,11.89-2.65,3.38-5.8,6.12-9.29,8.02-3.49,1.89-7.31,2.94-11.31,2.94s-7.91-1.05-11.42-2.94c-3.51-1.89-6.68-4.63-9.35-8.02-2.66-3.38-4.82-7.41-6.31-11.89-1.49-4.47-2.32-9.39-2.32-14.56s.83-10.08,2.32-14.56c1.49-4.47,3.65-8.5,6.31-11.89,2.66-3.38,5.83-6.12,9.35-8.02,3.51-1.89,7.38-2.94,11.42-2.94h0ZM95.63,365.11c1.86,1.88,3.02,4.49,3.02,7.37v47.07c0,2.88-1.16,5.54-3.02,7.46-2.02,2.1-4.65,3.13-7.28,3.13-2.63,0-5.27-1.05-7.3-3.13-1.88-1.93-3.05-4.58-3.05-7.46v-47.07c0-2.88,1.16-5.49,3.05-7.37,2.02-2.02,4.66-3.04,7.3-3.04,2.64,0,5.28,1,7.28,3.04h0Z" style="fill-rule:evenodd;"/><path d="M211.61,358.72c4,0,7.83,1.05,11.31,2.94,3.49,1.89,6.64,4.63,9.29,8.02,2.65,3.38,4.8,7.41,6.29,11.89,1.49,4.47,2.31,9.39,2.31,14.56s-.82,10.08-2.31,14.55c-1.49,4.47-3.64,8.5-6.29,11.89-2.65,3.38-5.8,6.12-9.29,8.02-3.49,1.89-7.31,2.94-11.31,2.94s-7.91-1.05-11.42-2.94c-3.51-1.89-6.68-4.63-9.35-8.02-2.66-3.38-4.82-7.41-6.31-11.89-1.49-4.47-2.32-9.39-2.32-14.56s.83-10.08,2.32-14.56c1.49-4.47,3.65-8.5,6.31-11.89,2.66-3.38,5.83-6.12,9.35-8.02,3.52-1.89,7.38-2.94,11.42-2.94h0ZM218.82,365.11c1.86,1.88,3.02,4.49,3.02,7.37v47.07c0,2.88-1.16,5.54-3.02,7.46-2.02,2.1-4.65,3.13-7.28,3.13-2.63,0-5.27-1.05-7.3-3.13-1.88-1.93-3.05-4.58-3.05-7.46v-47.07c0-2.88,1.16-5.49,3.05-7.37,2.02-2.02,4.66-3.04,7.3-3.04,2.64,0,5.28,1,7.28,3.04h0Z" style="fill-rule:evenodd;"/><path d="M123.99,359.65h28.95v3.93h-7.22v65.08h13.25c5.43,0,8.67-4.16,10.59-9.2,2.04-5.37,2.57-11.75,2.65-15.15h3.29v28.28h-51.5v-3.93h7.22v-65.08h-7.22v-3.93h0Z" style="fill-rule:evenodd;"/><path d="M0,428.66h7.22v-65.08H0v-3.93h33.93c2.91,0,5.85.58,8.56,1.71,2.4,1.01,4.56,2.42,6.38,4.16.91.87,1.73,1.81,2.46,2.83.72,1.01,1.35,2.1,1.86,3.23,2.1,4.69,2.12,10.04,0,14.72-1.02,2.25-2.5,4.29-4.32,6.01-1.82,1.72-3.98,3.13-6.38,4.13-2.71,1.13-5.65,1.71-8.56,1.71h-12.2v30.5h7.22v3.93H0v-3.93h0ZM38.12,373.72c-.37-1.78-.96-3.5-1.82-5-.86-1.5-1.98-2.79-3.42-3.7-1.44-.91-3.19-1.45-5.29-1.45h-5.85v30.66h5.85c2,0,3.68-.54,5.08-1.45,1.4-.91,2.51-2.19,3.38-3.68.87-1.48,1.49-3.18,1.91-4.9.41-1.7.63-3.47.66-5.23.03-1.77-.13-3.54-.49-5.25h0Z" style="fill-rule:evenodd;"/></svg>